<svg id="Layer_1" data-name="Layer 1" xmlns="http://www.w3.org/2000/svg" viewBox="0 0 16 16"><defs><style>.cls-1{fill:#5e6f6d;}.cls-2{fill:#333;}</style></defs><title>Artboard 1</title><path class="cls-1" d="M16,12.41H11.23v-.48l.46,0a1.32,1.32,0,0,0,.41-.08.56.56,0,0,0,.31-.24.75.75,0,0,0,.09-.39v-3H8.73v3a.92.92,0,0,0,.09.38.62.62,0,0,0,.31.26,1.86,1.86,0,0,0,.41.11,3.72,3.72,0,0,0,.46.07v.48H5.23v-.48l.46,0a2.05,2.05,0,0,0,.44-.09.52.52,0,0,0,.31-.24.8.8,0,0,0,.09-.39V4.93a.81.81,0,0,0-.08-.37.62.62,0,0,0-.32-.26,2.61,2.61,0,0,0-.47-.15l-.43-.08V3.59H10v.48a3.24,3.24,0,0,0-.46.07l-.41.09a.48.48,0,0,0-.32.26,1,1,0,0,0-.08.37V7.5H12.5V4.93a.7.7,0,0,0-.08-.37.62.62,0,0,0-.32-.26,2.08,2.08,0,0,0-.44-.14l-.43-.09V3.59H16v.48l-.45.06a3,3,0,0,0-.45.1.5.5,0,0,0-.31.25,1,1,0,0,0-.08.38v6.25a.86.86,0,0,0,.08.38.59.59,0,0,0,.31.26,3.24,3.24,0,0,0,.44.12l.46.06Z"/><path class="cls-2" d="M8.27,5.79A2.52,2.52,0,0,1,8,7.08,2.36,2.36,0,0,1,7.11,8a4.18,4.18,0,0,1-1.28.51,7.8,7.8,0,0,1-1.61.15H3.5v2.48a.93.93,0,0,0,.08.39.61.61,0,0,0,.32.26,2.26,2.26,0,0,0,.41.11,3.35,3.35,0,0,0,.47.07v.49H0v-.49l.48-.05a1.6,1.6,0,0,0,.41-.08.69.69,0,0,0,.33-.24.9.9,0,0,0,.07-.4V4.92a.84.84,0,0,0-.07-.37.62.62,0,0,0-.33-.27,2.4,2.4,0,0,0-.46-.13L0,4.07V3.59H4.87a4.79,4.79,0,0,1,2.55.54A1.83,1.83,0,0,1,8.27,5.79Zm-2.43.32a2.24,2.24,0,0,0-.4-1.47A1.73,1.73,0,0,0,4,4.15H3.5V8h.26a2.28,2.28,0,0,0,1.55-.47A1.83,1.83,0,0,0,5.84,6.11Z"/></svg>